<svg xmlns="http://www.w3.org/2000/svg" width="40" height="40" viewBox="0 0 40 40">
  <defs>
    <style>
      .cls-1 {
        fill: #7bff81;
        fill-rule: evenodd;
      }
    </style>
  </defs>
  <path id="bird" class="cls-1" d="M24.885,34.764a3.14,3.14,0,0,1,2.131,0c5.712-9.212,6.405-20.606-1.711-24.773,2.735-2.12,3.645-5.152,3.457-8.735-5.749,7.4-11.6,7.211-17.556,0,0.2,3.3.991,6.331,3.461,8.614h0c-8.088,3.94-7.505,15.324-1.43,24.894a3.27,3.27,0,0,1,2.152,0,2.223,2.223,0,0,1,1.756,0c1.178,0.951,1.25,2.419,1.286,4.236h3.477c0.111-1.647-.107-3.25,1.138-4.236A2.364,2.364,0,0,1,24.885,34.764ZM15.343,20.726a3.873,3.873,0,0,1-4.121-3.565A3.873,3.873,0,0,1,15.343,13.6a3.874,3.874,0,0,1,4.121,3.565A3.874,3.874,0,0,1,15.343,20.726Zm4.533,3.547c-0.571,0-2.757-3.15-1.213-3.15h2.443C22.654,21.123,20.457,24.273,19.876,24.273Zm0.5-7.112A3.874,3.874,0,0,1,24.5,13.6a3.874,3.874,0,0,1,4.122,3.565A3.874,3.874,0,0,1,24.5,20.726,3.874,3.874,0,0,1,20.38,17.161Zm-3.7-.99A1.614,1.614,0,0,1,18.4,17.657a1.614,1.614,0,0,1-1.717,1.485,1.614,1.614,0,0,1-1.717-1.485A1.614,1.614,0,0,1,16.678,16.172Zm6.488,0a1.614,1.614,0,0,1,1.717,1.485,1.735,1.735,0,0,1-3.434,0A1.614,1.614,0,0,1,23.166,16.172Zm-6.76,19.3a1.173,1.173,0,0,0-1.013.771,1.173,1.173,0,0,0-1.013-.771,1.192,1.192,0,0,0-1.035.821,1.193,1.193,0,0,0-1.035-.821,1.48,1.48,0,0,0-1.2,1.65,1.48,1.48,0,0,0,1.2,1.65,1.193,1.193,0,0,0,1.035-.821,1.192,1.192,0,0,0,1.035.821A1.173,1.173,0,0,0,15.393,38a1.173,1.173,0,0,0,1.013.771,1.48,1.48,0,0,0,1.2-1.65A1.48,1.48,0,0,0,16.406,35.467Zm11.537,0a1.172,1.172,0,0,0-1.013.771,1.173,1.173,0,0,0-1.013-.771,1.192,1.192,0,0,0-1.035.821,1.193,1.193,0,0,0-1.036-.821,1.48,1.48,0,0,0-1.2,1.65,1.48,1.48,0,0,0,1.2,1.65,1.193,1.193,0,0,0,1.036-.821,1.192,1.192,0,0,0,1.035.821A1.173,1.173,0,0,0,26.93,38a1.172,1.172,0,0,0,1.013.771,1.48,1.48,0,0,0,1.2-1.65A1.48,1.48,0,0,0,27.943,35.467Z"/>
</svg>
