<svg xmlns="http://www.w3.org/2000/svg" width="40" height="40" viewBox="0 0 40 40">
  <defs>
    <style>
      .cls-1 {
        fill: #8787ff;
        fill-rule: evenodd;
      }
    </style>
  </defs>
  <path id="cat" class="cls-1" d="M22.709,16.249A1.089,1.089,0,1,1,21.6,17.339,1.1,1.1,0,0,1,22.709,16.249ZM31.95,29.278a8.594,8.594,0,0,1-1.309-4.445c0-3.381,1.906-4.571,1.984-4.618a0.579,0.579,0,0,0,.208-0.8,0.6,0.6,0,0,0-.813-0.2c-0.1.061-2.565,1.542-2.565,5.622A9.7,9.7,0,0,0,30.9,29.826a4.962,4.962,0,0,1,.827,2.3,1.533,1.533,0,0,1-.354,1.158,0.787,0.787,0,0,1-.549.177,0.564,0.564,0,0,0-.086-0.006H28.556a2.472,2.472,0,0,0,.4-1.352V5.787a0.585,0.585,0,0,0-.434-0.562,0.6,0.6,0,0,0-.667.26l-2.9,4.72c-0.89-.017-3.5-0.037-11.324-0.037-1.661,0-2.483,0-2.9,0L8.068,5.115a0.6,0.6,0,0,0-.667-0.3,0.586,0.586,0,0,0-.453.567V32.105a2.544,2.544,0,0,0,2.561,2.52h21.2c0.039,0,.094.007,0.163,0.007a1.967,1.967,0,0,0,1.272-.454,2.555,2.555,0,0,0,.773-2.049A5.945,5.945,0,0,0,31.95,29.278ZM13.2,19.893a2.555,2.555,0,1,1,2.6-2.555A2.579,2.579,0,0,1,13.2,19.893Zm6.157,2.96H18.763L18.7,23.947a0.8,0.8,0,0,1-.8.742H17.853a0.792,0.792,0,0,1-.753-0.832l0.059-1H16.553a0.788,0.788,0,1,1,0-1.575h2.8A0.788,0.788,0,1,1,19.355,22.853Zm3.354-2.96a2.555,2.555,0,1,1,2.6-2.555A2.579,2.579,0,0,1,22.709,19.893ZM13.2,16.249a1.089,1.089,0,1,1-1.107,1.089A1.1,1.1,0,0,1,13.2,16.249Z"/>
</svg>
