<svg xmlns="http://www.w3.org/2000/svg" width="40" height="40" viewBox="0 0 40 40">
  <defs>
    <style>
      .cls-1 {
        fill: #ff6f9e;
        fill-rule: evenodd;
      }
    </style>
  </defs>
  <path id="dog" class="cls-1" d="M9,13.635l1.887-2.412a12.2,12.2,0,0,1,4.021-5.742L10.8,5.2s-3.084.585-3,4.758S9,13.635,9,13.635Zm23.341,11.1c-0.72-3.414-1.92-5.133-3.928-6.114C22.728,16.233,21.743,8,21.7,7.614c0.01,0.087,1.978,7.862,7.1,10.075,0.515-.441,1.257-1.559,1.527-4.39,0.427-4.506.789-7.616-7.968-7.761A22.181,22.181,0,0,0,16.929,5.3a11.49,11.49,0,0,0-5.23,6.825l-0.046,2.265-4.627,2a3.677,3.677,0,0,0-.684,2.755c0.33,1.369.591,3.436,4.08,3.727V19.092a1.3,1.3,0,0,1-1.252-.983c0-.57.791-1.033,1.766-1.033S12.7,17.539,12.7,18.109a1.3,1.3,0,0,1-1.253.983v3.83a47.45,47.45,0,0,0,5.087-.023L12.706,34H32.962A59.788,59.788,0,0,0,32.338,24.736Zm-18.06-9.978c-0.583,0-1.055-.841-1.055-1.876s0.472-1.875,1.055-1.875,1.054,0.839,1.054,1.875S14.86,14.759,14.278,14.759Zm2.735-1.877c0-1.04.474-1.884,1.058-1.884s1.058,0.843,1.058,1.884-0.474,1.883-1.058,1.883S17.012,13.92,17.012,12.881Z"/>
</svg>
