<svg xmlns="http://www.w3.org/2000/svg" width="40" height="40" viewBox="0 0 40 40">
  <defs>
    <style>
      .cls-1 {
        fill: #a2a2a2;
        fill-rule: evenodd;
      }
    </style>
  </defs>
  <path id="FAQ" class="cls-1" d="M17.813,20.627h1.694c4.941,0,8.424-3.479,8.424-7.9a7.861,7.861,0,0,0-8.189-7.851,7.6,7.6,0,0,0-7.577,5.784H10C10.849,6.009,14.8,3,19.649,3,25.672,3,30,7.276,30,12.73c0,5.313-4,9.4-10.022,9.5L19.93,27.161H18.049ZM17.3,34.308a1.7,1.7,0,0,1,1.74-1.692,1.727,1.727,0,0,1,1.741,1.692A1.7,1.7,0,0,1,19.036,36,1.668,1.668,0,0,1,17.3,34.308Z"/>
</svg>
