<svg xmlns="http://www.w3.org/2000/svg" width="40" height="40" viewBox="0 0 40 40">
  <defs>
    <style>
      .cls-1 {
        fill: #ffb93f;
        fill-rule: evenodd;
      }
    </style>
  </defs>
  <path id="fish" class="cls-1" d="M32.453,15.821a8.254,8.254,0,0,0-3.679,1.9c-0.609.527-1.4,0.488-1.625-.281-0.9-3.107.607-7.623,0.607-7.623,1.668-4.166-4.361-3.144-4.361-3.144C12.253,8.688,8.984,14.4,8.052,17.066a19.512,19.512,0,0,1-1.247,2.547c-0.03.054-.058,0.107-0.084,0.16-0.354.718,0.247,1.888,0.686,2.56a7.649,7.649,0,0,1,.75,1.4c2.919,9.019,16.123,9.934,16.123,9.934,2.288,0.289,3.163-.46,3.479-1.234,0.3-.742-0.222-1.988-0.489-2.742a10.923,10.923,0,0,1-.008-6.531,0.835,0.835,0,0,1,1.506-.325,9.536,9.536,0,0,0,4.016,2.5c0.782,0.2,1.215-.518,1.012-1.292a16.218,16.218,0,0,1-.226-6.931A0.983,0.983,0,0,0,32.453,15.821ZM11.61,23.505a2.587,2.587,0,1,1,2.618-2.587A2.6,2.6,0,0,1,11.61,23.505ZM11.5,19.026a0.994,0.994,0,1,1-1.006.994A1,1,0,0,1,11.5,19.026Z"/>
</svg>
