<svg xmlns="http://www.w3.org/2000/svg" width="40" height="40" viewBox="0 0 40 40">
  <defs>
    <style>
      .cls-1 {
        fill: #7be5ff;
        fill-rule: evenodd;
      }
    </style>
  </defs>
  <path id="hamster" class="cls-1" d="M30.373,29.59V22.93a1.819,1.819,0,0,0,0-3.637v-4.4a4.077,4.077,0,0,0,2.185-3.635,3.953,3.953,0,1,0-7.9,0H16.837a5.814,5.814,0,0,0,.041-0.66A5.521,5.521,0,0,0,11.439,5,5.521,5.521,0,0,0,6,10.6a5.587,5.587,0,0,0,3.673,5.292v3.4a1.819,1.819,0,0,0,0,3.637v6.66a2.706,2.706,0,0,0,0,5.41,2.554,2.554,0,0,0,1.321-.369,2.535,2.535,0,0,0,1.3.359H27.755a2.535,2.535,0,0,0,1.3-.359A2.554,2.554,0,0,0,30.373,35,2.706,2.706,0,0,0,30.373,29.59ZM22.221,17.62A1.673,1.673,0,1,1,20.6,19.292,1.649,1.649,0,0,1,22.221,17.62Zm-4.948-.38a2.586,2.586,0,1,1-2.511,2.585A2.549,2.549,0,0,1,17.273,17.239Zm5.6,11.482-2.457.087-0.1-2.859c-0.1,0-.2.005-0.294,0.005-0.084,0-.166,0-0.249,0l-0.092,2.857-2.457-.084,0.1-3a8.594,8.594,0,0,1-4.8-2.218l0.609-.381c1.249,1.238,3.9,2.117,6.9,2.117s5.645-.88,6.894-2.118l0.61,0.382a8.559,8.559,0,0,1-4.757,2.211Z"/>
</svg>
